<svg xmlns="http://www.w3.org/2000/svg" viewBox="0 0 1100 620"><rect width="100%" height="100%" rx="24" fill="#0d1117"/><rect x="30" y="30" width="505" height="160" rx="20" fill="#0b1320" stroke="#30363d" stroke-width="2"/><circle cx="60" cy="62" r="7" fill="#2F80ED"/><text x="78" y="70" fill="#f0f6fc" font-size="22" font-weight="700" font-family="Inter,Arial">Order-to-Warehouse</text><text x="55" y="112" fill="#8b949e" font-size="16" font-family="Inter,Arial">Sales → validation → warehouse</text><text x="55" y="154" fill="#2F80ED" font-size="14" font-family="ui-monospace,Menlo,Consolas,monospace">Streamlit • Sheets • Apps Script</text><rect x="565" y="30" width="505" height="160" rx="20" fill="#0b1320" stroke="#30363d" stroke-width="2"/><circle cx="595" cy="62" r="7" fill="#2F80ED"/><text x="613" y="70" fill="#f0f6fc" font-size="22" font-weight="700" font-family="Inter,Arial">Campaign Dashboard</text><text x="590" y="112" fill="#8b949e" font-size="16" font-family="Inter,Arial">SKU performance + ROI</text><text x="590" y="154" fill="#2F80ED" font-size="14" font-family="ui-monospace,Menlo,Consolas,monospace">Pandas • Plotly • Streamlit</text><rect x="30" y="220" width="505" height="160" rx="20" fill="#0b1320" stroke="#30363d" stroke-width="2"/><circle cx="60" cy="252" r="7" fill="#2F80ED"/><text x="78" y="260" fill="#f0f6fc" font-size="22" font-weight="700" font-family="Inter,Arial">Attendance System</text><text x="55" y="302" fill="#8b949e" font-size="16" font-family="Inter,Arial">GPS + geofence + photo</text><text x="55" y="344" fill="#2F80ED" font-size="14" font-family="ui-monospace,Menlo,Consolas,monospace">Streamlit • Supabase</text><rect x="565" y="220" width="505" height="160" rx="20" fill="#0b1320" stroke="#30363d" stroke-width="2"/><circle cx="595" cy="252" r="7" fill="#2F80ED"/><text x="613" y="260" fill="#f0f6fc" font-size="22" font-weight="700" font-family="Inter,Arial">Order Automation API</text><text x="590" y="302" fill="#8b949e" font-size="16" font-family="Inter,Arial">Order creation + status</text><text x="590" y="344" fill="#2F80ED" font-size="14" font-family="ui-monospace,Menlo,Consolas,monospace">Flask • REST • Emiza</text><rect x="30" y="410" width="505" height="160" rx="20" fill="#0b1320" stroke="#30363d" stroke-width="2"/><circle cx="60" cy="442" r="7" fill="#2F80ED"/><text x="78" y="450" fill="#f0f6fc" font-size="22" font-weight="700" font-family="Inter,Arial">Inventory Automation</text><text x="55" y="492" fill="#8b949e" font-size="16" font-family="Inter,Arial">Inventory + sales reports</text><text x="55" y="534" fill="#2F80ED" font-size="14" font-family="ui-monospace,Menlo,Consolas,monospace">Flask • Requests</text><rect x="565" y="410" width="505" height="160" rx="20" fill="#0b1320" stroke="#30363d" stroke-width="2"/><circle cx="595" cy="442" r="7" fill="#2F80ED"/><text x="613" y="450" fill="#f0f6fc" font-size="22" font-weight="700" font-family="Inter,Arial">Amazon Monitor</text><text x="590" y="492" fill="#8b949e" font-size="16" font-family="Inter,Arial">Scheduled product metrics</text><text x="590" y="534" fill="#2F80ED" font-size="14" font-family="ui-monospace,Menlo,Consolas,monospace">Actions • Selenium</text></svg>